<?xml version="1.0" encoding="utf-8"?>
<!-- Generator: Adobe Illustrator 16.0.0, SVG Export Plug-In . SVG Version: 6.00 Build 0)  -->
<!DOCTYPE svg PUBLIC "-//W3C//DTD SVG 1.1//EN" "http://www.w3.org/Graphics/SVG/1.1/DTD/svg11.dtd">
<svg version="1.1" id="Layer_1" xmlns="http://www.w3.org/2000/svg" xmlns:xlink="http://www.w3.org/1999/xlink" x="0px" y="0px"
	 width="200px" height="200px" viewBox="0 0 200 200" enable-background="new 0 0 200 200" xml:space="preserve">
<g>
	<g>
		<path d="M70.031,132.894c-0.251,2.228-0.915,4.816-2.521,6.829c1.541,0.034,3.077,0.049,4.606,0.025l2.298-0.017l2.333-0.016
			c0.934,0.007,1.816-0.076,2.727-0.108c0.471-0.027,0.852-0.03,1.436-0.088c0.576-0.063,1.016-0.044,1.477-0.038l2.792,0.027
			l5.59,0.047l11.183,0.079l22.363,0.092l11.119-0.024c1.533-0.015,3.061-0.024,4.592-0.077c0.191-0.001,0.381-0.014,0.572-0.034
			l0.285-0.025l0.143-0.013c0.041-0.022,0.08-0.053,0.115-0.083c0.217-0.319,0.283-0.709,0.367-1.079
			c0.143-0.752,0.223-1.514,0.295-2.275l0.131-1.735l0.102-1.853c0.066-1.399,0.117-2.804,0.156-4.21
			c0.08-2.813,0.125-5.632,0.152-8.453c0.053-5.643,0.041-11.292,0.006-16.942l-0.176-16.955l-0.166-11.546
			c-0.154-0.333-3.805-3.978-5.578-4.187c-0.076-5.318-0.172-10.584-0.188-16.014c3.154,0.595,5.865,2.843,7.1,6.919
			c1.02-4.067,3.926-6.568,6.98-6.919c0.014,5.174,0.111,10.513,0.188,15.799c-0.918,0.155-2.271,1.228-3.406,2.277
			c-1.133,1.05-2.043,2.077-2.07,2.141l0.168,11.602l0.174,16.938c0.035,5.648,0.047,11.298-0.008,16.953
			c-0.027,2.828-0.07,5.658-0.152,8.492c-0.039,1.417-0.09,2.836-0.158,4.259l-0.137,2.383c-0.055,0.832-0.127,1.659-0.217,2.479
			c-0.127,1.079-0.305,2.132-0.596,3.111c-0.158,0.484-0.309,0.973-0.652,1.363c-0.037,0.058-0.135,0.047-0.133,0.149l-0.18,0.041
			l-0.361,0.082c-0.236,0.06-0.48,0.108-0.738,0.136c-0.98,0.17-2.086,0.205-3.178,0.229c-1.094,0.027-2.182,0.072-3.283,0.07
			l-11.24,0.025l-22.35-0.092l-11.173-0.079l-5.587-0.047l-2.796-0.026c-1.042-0.054-1.605,0.088-2.663,0.113
			c-0.952,0.037-1.925,0.117-2.859,0.118l-2.417,0.018l-2.325,0.016c-1.553,0.023-3.098,0.011-4.639-0.024
			c1.56,2.058,2.335,4.827,2.406,6.882c-3.604-3.599-8.234-6.769-13.816-8.594C61.79,139.469,66.271,136.266,70.031,132.894z"/>
	</g>
</g>
</svg>
