<?xml version="1.0" encoding="UTF-8" standalone="no"?>
<!DOCTYPE svg PUBLIC "-//W3C//DTD SVG 1.1//EN" "http://www.w3.org/Graphics/SVG/1.1/DTD/svg11.dtd">
<svg version="1.1" xmlns="http://www.w3.org/2000/svg" xmlns:xlink="http://www.w3.org/1999/xlink" preserveAspectRatio="xMidYMid meet" viewBox="0 0 1000 700" width="1000" height="700"><defs><path d="M221.55 166.11C221.55 192.11 204.5 213.21 183.49 213.21C162.49 213.21 145.43 192.11 145.43 166.11C145.43 140.12 162.49 119.01 183.49 119.01C204.5 119.01 221.55 140.12 221.55 166.11Z" id="f2jFbJcHD"></path><path d="M187.7 213.21C190.59 216.61 192.4 218.73 193.12 219.58C193.56 220.1 193.02 220.85 192.39 220.61C191.76 220.37 190.2 219.77 187.7 218.8C185.96 220.16 184.87 221.01 184.43 221.35C183.92 221.75 183.2 221.76 182.68 221.38C182.14 220.98 180.81 220 178.69 218.43C176.32 219.53 174.84 220.23 174.25 220.5C173.7 220.76 173.19 220.1 173.56 219.63C174.25 218.77 175.95 216.63 178.69 213.21" id="dOMr9x0d5"></path><path d="M189.37 391.26C182.18 375.97 177.68 366.42 175.89 362.59C169.59 349.2 169.85 333.64 176.61 320.46C180 313.86 183.01 307.99 187.29 299.64C191.33 291.76 192.48 282.7 190.54 274.05C188.46 264.8 183.9 244.45 181.48 233.7C180.63 229.89 181.19 225.9 183.07 222.47C183.17 222.29 183.42 221.82 183.83 221.08" id="a7dBvZAs2"></path><path d="M199.26 136.59L205.08 134.98L207.33 143.13L201.51 144.73L199.26 136.59Z" id="ad87w9b8W"></path><path d="M345.4 398.86C345.4 424.85 328.34 445.95 307.34 445.95C286.33 445.95 269.28 424.85 269.28 398.86C269.28 372.86 286.33 351.76 307.34 351.76C328.34 351.76 345.4 372.86 345.4 398.86Z" id="jq8qlEUqc"></path><path d="M311.54 445.95C314.43 449.35 316.24 451.48 316.96 452.33C317.4 452.84 316.86 453.6 316.23 453.36C315.61 453.12 314.04 452.51 311.54 451.55C309.8 452.91 308.71 453.76 308.28 454.1C307.76 454.5 307.04 454.51 306.52 454.12C305.99 453.73 304.66 452.75 302.53 451.17C300.17 452.28 298.69 452.97 298.09 453.25C297.55 453.5 297.03 452.85 297.41 452.38C298.09 451.52 299.8 449.38 302.53 445.95" id="a18MaSNPF1"></path><path d="M313.22 624.01C306.02 608.72 301.53 599.16 299.73 595.34C293.43 581.94 293.7 566.38 300.45 553.21C303.84 546.6 306.85 540.73 311.13 532.39C315.18 524.5 316.33 515.45 314.39 506.8C312.31 497.55 307.74 477.19 305.33 466.44C304.47 462.63 305.03 458.64 306.91 455.22C307.01 455.03 307.26 454.57 307.67 453.83" id="aL95N6Uxy"></path><path d="M323.11 369.33L328.93 367.73L331.17 375.87L325.35 377.48L323.11 369.33Z" id="etrFjGzBC"></path><path d="M567.87 260.31C567.87 286.3 550.82 307.4 529.81 307.4C508.81 307.4 491.75 286.3 491.75 260.31C491.75 234.31 508.81 213.21 529.81 213.21C550.82 213.21 567.87 234.31 567.87 260.31Z" id="a3JQLMpwob"></path><path d="M534.02 307.4C536.91 310.8 538.72 312.93 539.44 313.78C539.88 314.29 539.34 315.05 538.71 314.81C538.08 314.56 536.52 313.96 534.02 312.99C532.27 314.36 531.19 315.21 530.75 315.55C530.24 315.95 529.52 315.96 528.99 315.57C528.46 315.18 527.13 314.19 525.01 312.62C522.64 313.73 521.16 314.42 520.57 314.7C520.02 314.95 519.5 314.3 519.88 313.82C520.56 312.97 522.27 310.83 525.01 307.4" id="a2veONpWCs"></path><path d="M535.69 485.46C528.5 470.17 524 460.61 522.21 456.79C515.9 443.39 516.17 427.83 522.93 414.66C526.31 408.05 529.33 402.18 533.61 393.84C537.65 385.95 538.8 376.9 536.86 368.25C534.78 359 530.21 338.64 527.8 327.89C526.95 324.08 527.51 320.09 529.38 316.67C529.49 316.48 529.74 316.02 530.15 315.27" id="a3c4NSeOu7"></path><path d="M545.58 230.78L551.4 229.18L553.65 237.32L547.83 238.93L545.58 230.78Z" id="csZHgj8o8"></path><path d="M831.44 474.85C831.44 500.84 814.39 521.94 793.38 521.94C772.38 521.94 755.32 500.84 755.32 474.85C755.32 448.85 772.38 427.75 793.38 427.75C814.39 427.75 831.44 448.85 831.44 474.85Z" id="dxBoqY7I"></path><path d="M797.59 521.94C800.48 525.34 802.29 527.47 803.01 528.32C803.45 528.83 802.91 529.59 802.28 529.35C801.65 529.11 800.09 528.5 797.59 527.54C795.84 528.9 794.76 529.75 794.32 530.09C793.81 530.49 793.09 530.5 792.56 530.11C792.03 529.72 790.7 528.74 788.58 527.16C786.21 528.27 784.73 528.96 784.14 529.24C783.59 529.49 783.07 528.84 783.45 528.37C784.13 527.51 785.84 525.37 788.58 521.94" id="cZcAqNU0e"></path><path d="M799.26 700C792.07 684.71 787.57 675.15 785.78 671.33C779.47 657.93 779.74 642.37 786.5 629.2C789.88 622.59 792.9 616.72 797.18 608.38C801.22 600.49 802.37 591.44 800.43 582.79C798.35 573.54 793.78 553.18 791.37 542.43C790.52 538.62 791.08 534.63 792.95 531.21C793.06 531.02 793.31 530.56 793.72 529.82" id="b8wVixnK5"></path><path d="M809.15 445.32L814.97 443.72L817.22 451.86L811.4 453.47L809.15 445.32Z" id="d32lvIPcXl"></path><path d="M927.89 296.79C927.89 322.79 910.83 343.89 889.83 343.89C868.82 343.89 851.77 322.79 851.77 296.79C851.77 270.8 868.82 249.69 889.83 249.69C910.83 249.69 927.89 270.8 927.89 296.79Z" id="bhEJQqC8Y"></path><path d="M894.03 343.89C896.93 347.29 898.73 349.41 899.46 350.26C899.89 350.78 899.35 351.53 898.72 351.29C898.1 351.05 896.54 350.45 894.03 349.48C892.29 350.84 891.2 351.69 890.77 352.03C890.25 352.43 889.54 352.44 889.01 352.06C888.48 351.66 887.15 350.68 885.02 349.11C882.66 350.21 881.18 350.91 880.58 351.18C880.04 351.44 879.52 350.78 879.9 350.31C880.58 349.45 882.29 347.31 885.02 343.89" id="c5cH6YICAN"></path><path d="M895.71 521.94C888.52 506.65 884.02 497.1 882.22 493.27C875.92 479.88 876.19 464.32 882.94 451.14C886.33 444.54 889.34 438.66 893.62 430.32C897.67 422.44 898.82 413.38 896.88 404.73C894.8 395.48 890.23 375.13 887.82 364.38C886.96 360.57 887.53 356.58 889.4 353.15C889.5 352.97 889.76 352.5 890.16 351.76" id="a1AIGjRnrd"></path><path d="M905.6 267.27L911.42 265.66L913.67 273.81L907.85 275.41L905.6 267.27Z" id="a2eYiBYwnm"></path></defs><g><g><g><use xlink:href="#f2jFbJcHD" opacity="1" fill="#ffffff" fill-opacity="1"></use><g><use xlink:href="#f2jFbJcHD" opacity="1" fill-opacity="0" stroke="#203bc2" stroke-width="2" stroke-opacity="1"></use></g></g><g><g><use xlink:href="#dOMr9x0d5" opacity="1" fill-opacity="0" stroke="#203bc2" stroke-width="2" stroke-opacity="1"></use></g></g><g><g><use xlink:href="#a7dBvZAs2" opacity="1" fill-opacity="0" stroke="#203bc2" stroke-width="2" stroke-opacity="1"></use></g></g><g><use xlink:href="#ad87w9b8W" opacity="1" fill="#ffffff" fill-opacity="1"></use><g><use xlink:href="#ad87w9b8W" opacity="1" fill-opacity="0" stroke="#203bc2" stroke-width="1" stroke-opacity="1"></use></g></g><g><use xlink:href="#jq8qlEUqc" opacity="1" fill="#ffffff" fill-opacity="1"></use><g><use xlink:href="#jq8qlEUqc" opacity="1" fill-opacity="0" stroke="#203bc2" stroke-width="2" stroke-opacity="1"></use></g></g><g><g><use xlink:href="#a18MaSNPF1" opacity="1" fill-opacity="0" stroke="#203bc2" stroke-width="2" stroke-opacity="1"></use></g></g><g><g><use xlink:href="#aL95N6Uxy" opacity="1" fill-opacity="0" stroke="#203bc2" stroke-width="2" stroke-opacity="1"></use></g></g><g><use xlink:href="#etrFjGzBC" opacity="1" fill="#ffffff" fill-opacity="1"></use><g><use xlink:href="#etrFjGzBC" opacity="1" fill-opacity="0" stroke="#203bc2" stroke-width="1" stroke-opacity="1"></use></g></g><g><use xlink:href="#a3JQLMpwob" opacity="1" fill="#ffffff" fill-opacity="1"></use><g><use xlink:href="#a3JQLMpwob" opacity="1" fill-opacity="0" stroke="#203bc2" stroke-width="2" stroke-opacity="1"></use></g></g><g><g><use xlink:href="#a2veONpWCs" opacity="1" fill-opacity="0" stroke="#203bc2" stroke-width="2" stroke-opacity="1"></use></g></g><g><g><use xlink:href="#a3c4NSeOu7" opacity="1" fill-opacity="0" stroke="#203bc2" stroke-width="2" stroke-opacity="1"></use></g></g><g><use xlink:href="#csZHgj8o8" opacity="1" fill="#ffffff" fill-opacity="1"></use><g><use xlink:href="#csZHgj8o8" opacity="1" fill-opacity="0" stroke="#203bc2" stroke-width="1" stroke-opacity="1"></use></g></g><g><use xlink:href="#dxBoqY7I" opacity="1" fill="#ffffff" fill-opacity="1"></use><g><use xlink:href="#dxBoqY7I" opacity="1" fill-opacity="0" stroke="#203bc2" stroke-width="2" stroke-opacity="1"></use></g></g><g><g><use xlink:href="#cZcAqNU0e" opacity="1" fill-opacity="0" stroke="#203bc2" stroke-width="2" stroke-opacity="1"></use></g></g><g><g><use xlink:href="#b8wVixnK5" opacity="1" fill-opacity="0" stroke="#203bc2" stroke-width="2" stroke-opacity="1"></use></g></g><g><use xlink:href="#d32lvIPcXl" opacity="1" fill="#ffffff" fill-opacity="1"></use><g><use xlink:href="#d32lvIPcXl" opacity="1" fill-opacity="0" stroke="#203bc2" stroke-width="1" stroke-opacity="1"></use></g></g><g><use xlink:href="#bhEJQqC8Y" opacity="1" fill="#ffffff" fill-opacity="1"></use><g><use xlink:href="#bhEJQqC8Y" opacity="1" fill-opacity="0" stroke="#203bc2" stroke-width="2" stroke-opacity="1"></use></g></g><g><g><use xlink:href="#c5cH6YICAN" opacity="1" fill-opacity="0" stroke="#203bc2" stroke-width="2" stroke-opacity="1"></use></g></g><g><g><use xlink:href="#a1AIGjRnrd" opacity="1" fill-opacity="0" stroke="#203bc2" stroke-width="2" stroke-opacity="1"></use></g></g><g><use xlink:href="#a2eYiBYwnm" opacity="1" fill="#ffffff" fill-opacity="1"></use><g><use xlink:href="#a2eYiBYwnm" opacity="1" fill-opacity="0" stroke="#203bc2" stroke-width="1" stroke-opacity="1"></use></g></g></g></g></svg>