<?xml version="1.0" encoding="utf-8"?>
<!-- Generator: Adobe Illustrator 16.0.0, SVG Export Plug-In . SVG Version: 6.00 Build 0)  -->
<!DOCTYPE svg PUBLIC "-//W3C//DTD SVG 1.1//EN" "http://www.w3.org/Graphics/SVG/1.1/DTD/svg11.dtd">
<svg version="1.1" id="Layer_1" xmlns="http://www.w3.org/2000/svg" xmlns:xlink="http://www.w3.org/1999/xlink" x="0px" y="0px"
	 width="200px" height="200px" viewBox="0 0 200 200" enable-background="new 0 0 200 200" xml:space="preserve">
<g>
	<g>
		<path d="M133.563,147.66c0.233-2.233,0.878-4.846,2.455-6.909c-1.543,0.034-3.09,0.049-4.645,0.024l-2.328-0.016l-2.363-0.017
			c-0.932,0.007-1.908-0.079-2.86-0.114c-0.459-0.027-1.012-0.041-1.354-0.084c-0.352-0.059-0.845-0.043-1.316-0.035l-2.8,0.026
			l-5.595,0.047l-11.188,0.08l-22.378,0.092l-11.252-0.025c-1.1,0.002-2.187-0.042-3.279-0.069c-1.09-0.024-2.196-0.058-3.176-0.226
			c-0.256-0.027-0.501-0.073-0.739-0.134l-0.361-0.081l-0.181-0.041c0-0.096-0.095-0.091-0.133-0.145
			c-0.345-0.391-0.495-0.879-0.652-1.364c-0.29-0.979-0.466-2.03-0.593-3.108c-0.089-0.82-0.162-1.647-0.217-2.479l-0.136-2.382
			c-0.068-1.426-0.119-2.847-0.159-4.268c-0.081-2.84-0.125-5.676-0.152-8.51c-0.054-5.668-0.041-11.33-0.006-16.991l0.175-16.976
			l0.167-11.552c-0.144-0.338-3.68-4.093-5.446-4.356c0.076-5.287,0.172-10.625,0.187-15.8c3.157,0.536,5.856,2.805,6.983,6.919
			c1.127-4.026,4.046-6.515,7.097-6.919c-0.016,5.432-0.113,10.697-0.189,16.015c-0.92,0.127-2.308,1.159-3.473,2.173
			c-1.165,1.015-2.106,2.013-2.136,2.076L61.354,84.11l-0.174,16.917c-0.034,5.638-0.047,11.274,0.007,16.904
			c0.027,2.814,0.071,5.628,0.151,8.435c0.04,1.403,0.09,2.804,0.157,4.2l0.101,1.841l0.13,1.726
			c0.071,0.758,0.152,1.516,0.293,2.264c0.084,0.367,0.15,0.755,0.363,1.073c0.033,0.033,0.075,0.059,0.113,0.087l0.142,0.012
			l0.284,0.025c0.189,0.02,0.379,0.033,0.57,0.034c1.522,0.053,3.042,0.063,4.567,0.077l11.1,0.024l22.333-0.092l11.168-0.079
			l5.583-0.047l2.789-0.026c0.823-0.063,2.107,0.104,2.913,0.121c0.907,0.033,1.792,0.11,2.72,0.111l2.384,0.017l2.295,0.016
			c1.527,0.023,3.062,0.012,4.6-0.023c-1.589-2.006-2.383-4.748-2.472-6.803c3.558,3.483,8.24,6.499,13.909,8.141
			C141.796,140.816,137.376,144.166,133.563,147.66z"/>
	</g>
</g>
</svg>
